<?xml version="1.0" standalone="no"?>
<!DOCTYPE svg PUBLIC "-//W3C//DTD SVG 1.1//EN" "http://www.w3.org/Graphics/SVG/1.1/DTD/svg11.dtd">
<svg xmlns="http://www.w3.org/2000/svg">
<metadata>Generated by Fontastic.me</metadata>
<defs>
<font id="canvas" horiz-adv-x="512">
<font-face font-family="canvas" units-per-em="512" ascent="480" descent="-32"/>
<missing-glyph horiz-adv-x="512" />

<glyph glyph-name="grid" unicode="&#97;" d="M422 461l-332 0c-22 0-39-17-39-39l0-332c0-22 17-39 39-39l332 0c22 0 39 17 39 39l0 332c0 22-17 39-39 39z m13-39l0-89-102 0 0 102 89 0c7 0 13-6 13-13z m-230-217l0 102 102 0 0-102z m102-26l0-102-102 0 0 102z m-128 26l-102 0 0 102 102 0z m26 128l0 102 102 0 0-102z m128-26l102 0 0-102-102 0z m-243 128l89 0 0-102-102 0 0 89c0 7 6 13 13 13z m-13-345l0 89 102 0 0-102-89 0c-7 0-13 6-13 13z m345-13l-89 0 0 102 102 0 0-89c0-7-6-13-13-13z"/>
<glyph glyph-name="text-format" unicode="&#99;" d="M422 26l-358 0c-7 0-13 5-13 12 0 7 6 13 13 13l358 0c7 0 13-6 13-13 0-7-6-12-13-12z m-13 94l-66 154c0 0 0 0 0 0l-88 205c-2 4-7 7-12 7-5 0-10-3-12-7l-87-205c0 0 0 0 0 0l-66-154c-3-6 0-14 7-17 6-2 14 1 16 7l63 146 159 0 62-146c2-5 7-8 12-8 2 0 3 1 5 1 6 3 9 11 7 17z m-234 162l68 159 69-159-137 0z"/>
<glyph glyph-name="media" unicode="&#100;" d="M507 228c-3 2-7 3-10 2l-128-25c-6-2-11-7-11-13l0-69c-7 3-16 5-25 5-29 0-51-17-51-38 0-22 22-39 51-39 29 0 51 17 51 39l0 92 102 20 0-53c-7 3-16 5-25 5-29 0-51-17-51-39 0-21 22-38 51-38 29 0 51 17 51 38l0 103c0 3-2 7-5 10z m-174-151c-16 0-26 7-26 13 0 5 10 12 26 12 15 0 25-7 25-12 0-6-10-13-25-13z m128 25c-16 0-26 8-26 13 0 5 10 13 26 13 15 0 25-8 25-13 0-5-10-13-25-13z m-115 128c-22 0-39 18-39 39 0 21 17 38 39 38 21 0 38-17 38-38 0-21-17-39-38-39z m0 52c-7 0-13-6-13-13 0-7 6-13 13-13 7 0 12 6 12 13 0 7-5 13-12 13z m76 76l-115 0 0 90c0 7-6 13-13 13l-281 0c-7 0-13-6-13-13l0-154c0-7 6-12 13-12l115 0 0-90c0-7 6-13 13-13l179 0c7 0 13 6 13 13 0 7-6 13-13 13l-20 0-81 92c-7 7-17 12-27 12-10-1-19-6-26-14l-12-15 0 53 256 0 0-77c0-7 5-13 12-13 7 0 13 6 13 13l0 90c0 7-6 12-13 12z m-166 26l26 0 0-26-26 0z m26 26l-26 0 0 25 26 0z m-256-26l25 0 0-26-25 0z m25 51l0-25-25 0 0 25z m-25-102l25 0 0-26-25 0z m160-54c2 3 4 4 7 4 2 0 4-1 6-3l67-75-112 0 0 34z m-45 79c-7 0-13-5-13-12l0-39-51 0 0 128 153 0 0-77z"/>
<glyph glyph-name="select2" unicode="&#102;" d="M141 128l-103 0c-21 0-38 17-38 38l0 308c0 21 17 38 38 38l359 0c21 0 38-17 38-38l0-180c0-7-6-12-13-12-7 0-12 5-12 12l0 180c0 7-6 12-13 12l-359 0c-7 0-12-5-12-12l0-308c0-7 5-12 12-12l103 0c7 0 13-6 13-13 0-7-6-13-13-13z m192-128c-5 0-10 3-12 8l-44 109-75-87c-4-4-10-5-15-4-4 2-8 7-8 12l0 384c0 5 3 10 8 12 4 2 10 1 14-2l281-256c4-4 5-9 4-14-2-5-7-8-12-8l-109 0 44-111c2-6-1-14-7-17l-64-25c-2-1-4-1-5-1z m-51 154c0 0 1 0 2-1 4 0 8-3 9-7l47-117 40 17-46 116c-2 4-1 8 1 12 2 3 6 5 11 5l95 0-236 214 0-321 67 77c2 3 6 5 10 5z"/>
<glyph glyph-name="hammer-wrench" unicode="&#103;" d="M476 142l-116 105 14 16c11-5 23-7 36-7 56 0 102 46 102 102 0 17-4 33-11 47-2 4-6 7-10 7-4 1-8 0-11-3l-50-51-20 0 0 21 50 50c3 3 4 7 3 11 0 4-3 7-6 9-15 8-31 12-47 12-57 0-103-46-103-103 0-12 2-24 7-36l-18-16-64 57c-2 3-3 6-3 9-1 3 1 6 3 8l59 59c3 4 4 9 2 14-2 5-6 8-11 8-1 0-27 0-54-2-52-3-65-9-71-15l-89-89c-3-3-4-6-4-9l0-13-13 0c-3 0-6-2-9-4l-25-26c-5-5-5-13 0-18l51-51c5-5 13-5 18 0l25 26c3 2 4 5 4 9l0 13 13 0c3 0 7 1 9 3l20 21c3 2 6 3 9 3 3 0 6-1 8-4l54-59-115-104c-8-7-12-16-12-27-1-10 3-20 10-27l28-28c7-7 17-11 26-11 1 0 1 0 1 0 11 1 20 5 27 13l101 112 102-112c7-8 17-13 27-13 10 0 19 4 27 11l27 28c8 7 12 17 11 27 0 10-4 20-12 27z m-135 183c-6 10-8 22-8 33 0 43 34 77 77 77 6 0 12-1 18-2l-40-40c-3-2-4-6-4-9l0-38c0-7 6-13 13-13l38 0c4 0 7 1 9 4l40 40c2-6 2-12 2-19 0-42-34-76-76-76-12 0-24 2-34 7-5 3-11 2-15-3l-20-21-26 24 23 20c4 4 5 10 3 16z m-175 10c-10 0-20-4-27-11l-16-17-21 0c-7 0-12-6-12-13l0-20-13-13-33 33 13 13 20 0c7 0 13 6 13 13l0 20 85 86c2 1 12 5 57 8 6 0 12 0 18 1l-36-37c-7-7-11-17-11-27 0-10 4-20 12-26l22-21-24-24-20 22c-7 8-17 13-27 13z m8-256c-2-3-5-4-8-4-3 0-6 1-9 3l-27 28c-3 2-4 5-4 9 0 3 2 6 4 8l116 104 30-34-102-114z m285 27l-28-28c-2-2-5-3-8-3-3 0-6 1-8 4l-184 202 25 26 203-184c2-2 4-5 4-8 0-4-1-7-4-9z"/>
<glyph glyph-name="pilcrow" unicode="&#101;" d="M397 461l-218 0c-56 0-102-46-102-103 0-56 46-102 102-102l26 0 0-192c0-7 6-13 13-13 7 0 12 6 12 13l0 371 77 0 0-371c0-7 6-13 13-13 7 0 13 6 13 13l0 371 64 0c7 0 13 6 13 13 0 7-6 13-13 13z m-192-179l-26 0c-42 0-77 34-77 76 0 43 35 77 77 77l26 0z"/>
<glyph glyph-name="text-size" unicode="&#98;" d="M178 95l-33 76c0 0 0 0 0 0l-44 103c-2 5-6 8-11 8-6 0-10-3-12-8l-44-103c0 0 0 0 0 0l-33-76c-3-7 0-14 7-17 6-3 14 0 17 7l29 69 71 0 30-69c2-5 6-8 11-8 2 0 4 0 5 1 7 3 10 10 7 17z m-113 84l25 57 24-57z m446-84l-53 128c0 0 0 0 0 0l-75 179c-2 4-7 8-12 8-5 0-10-3-12-8l-74-179c0 0 0 0 0 0l-54-128c-2-7 1-15 7-17 7-3 14 0 17 7l50 120 132 0 50-120c2-5 7-8 12-8 2 0 4 0 5 1 7 2 10 10 7 17z m-195 135l55 134 56-134z"/>
<glyph glyph-name="layers" unicode="&#104;" d="M256 205c-2 0-3 0-5 1l-243 102c-5 2-8 7-8 12 0 5 3 10 8 12l243 102c3 2 7 2 10 0l243-102c5-2 8-7 8-12 0-5-3-10-8-12l-243-102c-2-1-3-1-5-1z m-210 115l210-89 210 89-210 88z m210-192c-2 0-3 0-5 1l-243 102c-7 3-10 11-7 17 3 7 10 10 17 7l238-100 238 100c7 3 14 0 17-7 3-6 0-14-7-17l-243-102c-2-1-3-1-5-1z m0-77c-2 0-3 1-5 1l-243 103c-7 2-10 10-7 16 3 7 10 10 17 7l238-100 238 100c7 3 14 0 17-7 3-6 0-14-7-16l-243-103c-2 0-3-1-5-1z"/>
<glyph glyph-name="pencil4" unicode="&#105;" d="M90 77c-4 0-7 1-9 4-4 3-5 8-3 13l51 141c0 2 1 3 3 4l269 269c5 5 13 5 18 0l89-89c5-5 5-13 0-18l-269-269c-1-2-2-3-4-3l-141-51c-1-1-3-1-4-1z m62 146l-41-112 112 41 258 258-71 71z m296-223l-410 0c-21 0-38 17-38 38l0 410c0 21 17 38 38 38l256 0c7 0 13-5 13-12 0-7-6-13-13-13l-256 0c-7 0-12-6-12-13l0-410c0-7 5-12 12-12l410 0c7 0 13 5 13 12l0 256c0 7 6 13 13 13 7 0 12-6 12-13l0-256c0-21-17-38-38-38z"/>
<glyph glyph-name="cog" unicode="&#106;" d="M195 8c-1 0-2 0-3 0-23 6-45 15-65 27-6 4-9 11-5 17 4 8 6 16 6 25 0 28-23 51-51 51-9 0-17-2-25-6-6-3-13-1-17 5-12 20-21 42-27 65-2 7 2 13 8 16 21 7 35 26 35 48 0 22-14 42-35 49-6 2-10 8-8 15 6 23 15 45 27 65 4 6 11 9 17 5 8-4 16-6 25-6 28 0 51 23 51 51 0 9-2 17-6 25-4 6-1 13 5 17 20 12 42 21 65 27 7 2 13-2 15-8 7-21 27-35 49-35 22 0 41 14 48 35 3 6 9 10 16 8 23-6 45-15 65-27 6-4 8-11 5-17-4-8-6-16-6-25 0-28 23-51 51-51 9 0 17 2 25 6 6 4 13 1 17-5 12-20 21-42 27-65 2-7-2-13-8-15-21-7-35-27-35-49 0-22 14-41 35-48 6-3 10-9 8-16-6-23-15-45-27-65-4-6-11-8-17-5-8 4-16 6-25 6-28 0-51-23-51-51 0-9 2-17 6-25 3-6 1-13-5-17-20-12-42-21-65-27-7-2-13 2-16 8-7 21-26 35-48 35-22 0-42-14-49-35-1-5-6-8-12-8z m61 69c29 0 55-16 68-41 13 4 26 9 39 16-3 8-5 16-5 25 0 42 35 77 77 77 9 0 17-2 25-5 7 13 12 26 16 39-25 13-41 39-41 68 0 29 16 55 41 68-4 13-9 26-16 39-8-3-16-5-25-5-42 0-77 35-77 77 0 9 2 17 5 25-13 7-26 12-39 16-13-25-39-41-68-41-29 0-55 16-68 41-13-4-26-9-39-16 3-8 5-16 5-25 0-42-35-77-77-77-9 0-17 2-25 5-7-13-12-26-16-39 25-13 41-39 41-68 0-29-16-55-41-68 4-13 9-26 16-39 8 3 16 5 25 5 42 0 77-35 77-77 0-9-2-17-5-25 13-7 26-12 39-16 13 25 39 41 68 41z m0 102c-42 0-77 35-77 77 0 42 35 77 77 77 42 0 77-35 77-77 0-42-35-77-77-77z m0 128c-28 0-51-23-51-51 0-28 23-51 51-51 28 0 51 23 51 51 0 28-23 51-51 51z"/>
<glyph glyph-name="plus" unicode="&#107;" d="M474 256l-218 0 0 218c0 7-6 12-13 12-7 0-13-5-13-12l0-218-217 0c-7 0-13-6-13-13 0-7 6-13 13-13l217 0 0-217c0-7 6-13 13-13 7 0 13 6 13 13l0 217 218 0c7 0 12 6 12 13 0 7-5 13-12 13z"/>
<glyph glyph-name="cross" unicode="&#108;" d="M274 243l145 145c5 5 5 13 0 18-5 5-13 5-18 0l-145-145-145 145c-5 5-13 5-18 0-5-5-5-13 0-18l145-145-145-144c-5-5-5-13 0-18 3-3 6-4 9-4 4 0 7 1 9 4l145 144 145-144c2-3 5-4 9-4 3 0 6 1 9 4 5 5 5 13 0 18l-145 144z"/>
<glyph glyph-name="menu" unicode="&#109;" d="M448 358l-384 0c-7 0-13 6-13 13 0 7 6 13 13 13l384 0c7 0 13-6 13-13 0-7-6-13-13-13z m0-128l-384 0c-7 0-13 6-13 13 0 7 6 13 13 13l384 0c7 0 13-6 13-13 0-7-6-13-13-13z m0-128l-384 0c-7 0-13 6-13 13 0 7 6 13 13 13l384 0c7 0 13-6 13-13 0-7-6-13-13-13z"/>
<glyph glyph-name="smartphone" unicode="&#110;" d="M269 51l-26 0c-7 0-13 6-13 13 0 7 6 13 13 13l26 0c7 0 13-6 13-13 0-7-6-13-13-13z m102-51l-230 0c-21 0-39 17-39 38l0 436c0 21 18 38 39 38l230 0c21 0 39-17 39-38l0-436c0-21-18-38-39-38z m-230 486c-7 0-13-5-13-12l0-436c0-7 6-12 13-12l230 0c7 0 13 5 13 12l0 436c0 7-6 12-13 12z m205-384l-180 0c-7 0-12 6-12 13l0 333c0 7 5 13 12 13l180 0c7 0 12-6 12-13l0-333c0-7-5-13-12-13z m-167 26l154 0 0 307-154 0z"/>
<glyph glyph-name="desktop" unicode="&#111;" d="M474 486l-436 0c-21 0-38-17-38-38l0-333c0-21 17-38 38-38l133 0-17-36c-4-8-9-13-11-16-5-1-9-6-9-12 0-7 5-13 12-13l220 0c7 0 12 6 12 13 0 6-4 11-9 12-2 3-7 8-11 16l-17 36 133 0c21 0 38 17 38 38l0 333c0 21-17 38-38 38z m-436-25l436 0c7 0 12-6 12-13l0-243-460 0 0 243c0 7 5 13 12 13z m298-431c0-2 1-3 2-4l-164 0c1 1 2 2 3 4l23 47 112 0 24-47z m138 72l-436 0c-7 0-12 6-12 13l0 64 460 0 0-64c0-7-5-13-12-13z m-205 26l-26 0c-7 0-13 6-13 13 0 7 6 13 13 13l26 0c7 0 13-6 13-13 0-7-6-13-13-13z"/>
<glyph glyph-name="tablet" unicode="&#112;" d="M422 0l-332 0c-22 0-39 17-39 38l0 436c0 21 17 38 39 38l332 0c22 0 39-17 39-38l0-436c0-21-17-38-39-38z m-332 486c-7 0-13-5-13-12l0-436c0-7 6-12 13-12l332 0c7 0 13 5 13 12l0 436c0 7-6 12-13 12z m179-435l-26 0c-7 0-13 6-13 13 0 7 6 13 13 13l26 0c7 0 13-6 13-13 0-7-6-13-13-13z m128 51l-282 0c-7 0-13 6-13 13l0 333c0 7 6 13 13 13l282 0c7 0 13-6 13-13l0-333c0-7-6-13-13-13z m-269 26l256 0 0 307-256 0z"/>
<glyph glyph-name="floppy-disk" unicode="&#113;" d="M346 358l-52 0c-7 0-12 6-12 13l0 77c0 7 5 13 12 13l52 0c7 0 12-6 12-13l0-77c0-7-5-13-12-13z m-39 26l26 0 0 51-26 0z m201 60l-64 64c-2 3-5 4-9 4l-422 0c-7 0-13-6-13-13l0-486c0-7 6-13 13-13l486 0c7 0 13 6 13 13l0 422c0 4-1 7-4 9z m-354 42l230 0 0-153-230 0z m256-460l-308 0 0 204 308 0z m76 0l-51 0 0 217c0 7-6 13-13 13l-332 0c-7 0-13-6-13-13l0-217-51 0 0 460 102 0 0-166c0-7 6-13 13-13l256 0c7 0 13 6 13 13l0 166 20 0 56-56z"/>
<glyph glyph-name="papers" unicode="&#114;" d="M269 282l-77 0c-7 0-13 5-13 12l0 103c0 7 6 13 13 13l77 0c7 0 13-6 13-13l0-103c0-7-6-12-13-12z m-64 25l51 0 0 77-51 0z m-64 77l-51 0c-7 0-13 6-13 13 0 7 6 13 13 13l51 0c7 0 13-6 13-13 0-7-6-13-13-13z m0-51l-51 0c-7 0-13 6-13 13 0 7 6 12 13 12l51 0c7 0 13-5 13-12 0-7-6-13-13-13z m0-51l-51 0c-7 0-13 5-13 12 0 7 6 13 13 13l51 0c7 0 13-6 13-13 0-7-6-12-13-12z m128-52l-179 0c-7 0-13 6-13 13 0 7 6 13 13 13l179 0c7 0 13-6 13-13 0-7-6-13-13-13z m0-51l-179 0c-7 0-13 6-13 13 0 7 6 13 13 13l179 0c7 0 13-6 13-13 0-7-6-13-13-13z m153 205l-12 0 0 13c0 21-18 38-39 38l-13 0 0 13c0 21-17 38-38 38l-282 0c-21 0-38-17-38-38l0-307c0-21 17-39 38-39l13 0 0-12c0-22 17-39 39-39l12 0 0-13c0-21 18-38 39-38l281 0c22 0 39 17 39 38l0 308c0 21-17 38-39 38z m-396-243l0 307c0 7 5 13 12 13l282 0c7 0 13-6 13-13l0-307c0-7-6-13-13-13l-282 0c-7 0-12 6-12 13z m51-51l0 12 243 0c21 0 38 18 38 39l0 269 13 0c7 0 13-6 13-13l0-307c0-7-6-13-13-13l-281 0c-7 0-13 6-13 13z m358-52c0-7-6-12-13-12l-281 0c-7 0-13 5-13 12l0 13 243 0c21 0 39 17 39 39l0 268 12 0c7 0 13-5 13-12z"/>
<glyph glyph-name="clock3" unicode="&#115;" d="M415 415c-46 46-107 71-172 71-65 0-126-25-172-71-46-46-71-107-71-172 0-65 25-126 71-172 46-46 107-71 172-71 65 0 126 25 172 71 46 46 71 107 71 172 0 65-25 126-71 172z m-172-389c-120 0-217 97-217 217 0 120 97 218 217 218 120 0 218-98 218-218 0-120-98-217-218-217z m144 300c-3 7-11 9-17 5l-126-73-98 69c-6 4-14 3-18-3-4-6-3-14 3-18l105-73c0 0 0 0 0 0 0-1 0-1 1-1 0 0 0 0 0 0 0 0 0 0 0 0 1 0 1 0 1 0 0 0 0-1 0-1 1 0 1 0 1 0 0 0 0 0 0 0 0 0 1 0 1 0 0 0 0 0 0 0 0 0 0 0 1 0 0 0 0 0 0 0 0 0 0 0 0 0 1 0 1 0 1-1 0 0 0 0 0 0 1 0 1 0 1 0 1 0 1 0 2 0 0 0 0 0 0 0 0 1 1 1 1 1 0 0 0 0 0 0 1 0 1 0 2 0 0 0 0 0 0 0 0 0 1 1 1 1 0 0 0 0 0 0 0 0 0 0 1 0l133 77c6 3 8 11 4 17z"/>
<glyph glyph-name="chevron-down" unicode="&#116;" d="M0 358c0 4 1 7 4 9 5 5 13 5 18 0l221-221 222 221c5 5 13 5 18 0 5-5 5-13 0-18l-231-230c-5-5-13-5-18 0l-230 230c-3 3-4 6-4 9z"/>
</font>
</defs>
</svg>
